<?xml version="1.0" standalone="no"?>
<!DOCTYPE svg PUBLIC "-//W3C//DTD SVG 20010904//EN"
 "http://www.w3.org/TR/2001/REC-SVG-20010904/DTD/svg10.dtd">
<svg version="1.0" xmlns="http://www.w3.org/2000/svg"
 width="240.000000pt" height="237.000000pt" viewBox="0 0 240.000000 237.000000"
 preserveAspectRatio="xMidYMid meet">

<g transform="translate(0.000000,237.000000) scale(0.100000,-0.100000)"
fill="#000000" stroke="none">
<path d="M1050 2336 c-115 -21 -158 -34 -248 -77 -75 -36 -104 -60 -89 -75 3
-3 47 15 99 40 104 51 173 71 298 85 219 24 525 -41 702 -149 157 -97 315
-272 405 -452 93 -184 133 -340 133 -516 0 -492 -308 -910 -800 -1087 -219
-78 -462 -75 -683 11 -128 49 -278 129 -366 194 -182 135 -334 363 -401 604
-73 266 -65 476 29 703 42 102 92 174 194 278 136 138 254 206 327 190 44 -10
105 -58 124 -99 15 -33 15 -38 1 -66 -14 -28 -14 -31 0 -36 38 -15 59 70 31
124 -33 63 -112 112 -181 112 -87 0 -211 -77 -336 -207 -94 -98 -130 -150
-184 -266 -68 -145 -80 -212 -80 -422 1 -162 4 -190 27 -277 81 -297 256 -554
483 -706 321 -216 711 -280 1030 -170 306 105 584 348 715 622 129 273 141
605 31 896 -45 120 -178 322 -291 444 -89 96 -251 200 -386 246 -169 59 -427
84 -584 56z"/>
<path d="M903 2028 c-52 -58 -53 -95 -1 -159 35 -43 32 -62 -12 -87 -34 -19
-37 -30 -14 -39 23 -9 79 24 93 53 17 38 14 51 -24 93 -38 42 -43 65 -19 99
29 41 60 30 164 -59 97 -82 123 -87 196 -34 165 119 174 122 212 82 31 -33 28
-49 -23 -95 -50 -45 -52 -53 -30 -107 18 -42 16 -50 -32 -159 -32 -70 -35 -86
-30 -138 4 -46 13 -72 40 -112 36 -54 116 -152 201 -246 76 -84 155 -195 233
-326 97 -162 103 -193 36 -194 -17 0 -23 6 -23 23 0 43 -22 100 -47 123 -32
29 -67 30 -111 4 -80 -49 -54 -130 58 -178 l45 -19 -40 -40 c-45 -45 -148 -89
-305 -130 -172 -45 -442 -42 -614 7 -80 23 -149 58 -215 110 -54 43 -56 59 -8
60 92 1 155 125 82 158 -56 26 -145 -2 -186 -57 -25 -34 -39 -32 -39 7 1 41
17 62 106 138 174 150 360 394 434 572 56 133 50 264 -15 339 -27 31 -36 36
-46 25 -11 -10 -11 -16 -1 -30 99 -141 49 -337 -157 -609 -81 -108 -139 -169
-290 -306 -58 -53 -86 -106 -77 -150 6 -29 101 -131 181 -193 100 -78 252
-126 457 -144 182 -16 332 2 502 60 149 50 215 86 244 136 16 25 35 44 45 44
25 0 90 28 99 43 15 23 8 62 -22 126 -43 90 -185 300 -267 395 -233 270 -257
306 -256 387 0 31 13 73 37 126 38 86 43 117 24 169 -11 32 -10 34 35 77 50
47 55 62 33 106 -47 89 -135 79 -271 -30 -33 -27 -67 -49 -76 -49 -9 0 -49 27
-88 60 -39 33 -85 67 -101 75 -43 22 -93 19 -117 -7z m891 -1311 c21 -16 36
-107 17 -107 -21 0 -76 26 -89 43 -18 21 -8 51 21 65 29 14 30 14 51 -1z
m-1096 -53 c4 -31 -32 -56 -88 -62 -45 -4 -50 -3 -50 16 0 52 131 96 138 46z"/>
</g>
</svg>
